<svg width="21" height="22" viewBox="0 0 21 22" fill="none" xmlns="http://www.w3.org/2000/svg">
<g filter="url(#filter0_d_1_4050)">
<g clip-path="url(#clip0_1_4050)">
<g clip-path="url(#clip1_1_4050)">
<g clip-path="url(#clip2_1_4050)">
<path d="M23.2273 0.5H-2.22729C-3.23144 0.5 -4.04547 1.31403 -4.04547 2.31818V18.6818C-4.04547 19.686 -3.23144 20.5 -2.22729 20.5H23.2273C24.2314 20.5 25.0454 19.686 25.0454 18.6818V2.31818C25.0454 1.31403 24.2314 0.5 23.2273 0.5Z" fill="#043CAE"/>
<path fill-rule="evenodd" clip-rule="evenodd" d="M9.59887 5.02947L10.5 4.76555L11.4011 5.02947L11.1371 4.12838L11.4011 3.22729L10.5 3.49121L9.59887 3.22729L9.86278 4.12838L9.59887 5.02947ZM9.59887 17.7727L10.5 17.5087L11.4011 17.7727L11.1371 16.8716L11.4011 15.9705L10.5 16.2344L9.59887 15.9705L9.86278 16.8716L9.59887 17.7727ZM16.8716 11.1371L15.9705 11.4011L16.2344 10.5L15.9705 9.59893L16.8716 9.86284L17.7727 9.59893L17.5088 10.5L17.7727 11.4011L16.8716 11.1371ZM3.22723 11.4011L4.12832 11.1371L5.02941 11.4011L4.76549 10.5L5.02941 9.59893L4.12832 9.86284L3.22723 9.59893L3.49115 10.5L3.22723 11.4011ZM16.018 7.95129L15.1169 8.21521L15.3808 7.31412L15.1169 6.41304L16.018 6.67696L16.9191 6.41304L16.6551 7.31412L16.9191 8.21521L16.018 7.95129ZM4.08087 14.5869L4.98195 14.323L5.88305 14.5869L5.61914 13.6858L5.88305 12.7847L4.98195 13.0487L4.08087 12.7847L4.34479 13.6858L4.08087 14.5869ZM13.6858 5.6192L12.7847 5.88313L13.0486 4.98204L12.7847 4.08096L13.6858 4.34488L14.5869 4.08096L14.323 4.98204L14.5869 5.88313L13.6858 5.6192ZM6.41305 16.9191L7.31414 16.6552L8.21523 16.9191L7.95132 16.018L8.21523 15.1169L7.31414 15.3808L6.41305 15.1169L6.67696 16.018L6.41305 16.9191ZM16.018 14.323L15.1169 14.5869L15.3808 13.6858L15.1169 12.7847L16.018 13.0487L16.9191 12.7847L16.6551 13.6858L16.9191 14.5869L16.018 14.323ZM4.08087 8.21521L4.98195 7.95129L5.88305 8.21521L5.61914 7.31412L5.88305 6.41304L4.98195 6.67696L4.08087 6.41304L4.34479 7.31412L4.08087 8.21521ZM13.6858 16.6552L12.7847 16.9191L13.0486 16.018L12.7847 15.1169L13.6858 15.3808L14.5869 15.1169L14.323 16.018L14.5869 16.9191L13.6858 16.6552ZM6.41305 5.88313L7.31414 5.6192L8.21523 5.88313L7.95132 4.98204L8.21523 4.08096L7.31414 4.34488L6.41305 4.08096L6.67696 4.98204L6.41305 5.88313Z" fill="#FFD429"/>
</g>
</g>
</g>
</g>
<defs>
<filter id="filter0_d_1_4050" x="0.5" y="0.5" width="20" height="21" filterUnits="userSpaceOnUse" color-interpolation-filters="sRGB">
<feFlood flood-opacity="0" result="BackgroundImageFix"/>
<feColorMatrix in="SourceAlpha" type="matrix" values="0 0 0 0 0 0 0 0 0 0 0 0 0 0 0 0 0 0 127 0" result="hardAlpha"/>
<feOffset dy="1"/>
<feComposite in2="hardAlpha" operator="out"/>
<feColorMatrix type="matrix" values="0 0 0 0 0.0117647 0 0 0 0 0.156863 0 0 0 0 0.345098 0 0 0 1 0"/>
<feBlend mode="normal" in2="BackgroundImageFix" result="effect1_dropShadow_1_4050"/>
<feBlend mode="normal" in="SourceGraphic" in2="effect1_dropShadow_1_4050" result="shape"/>
</filter>
<clipPath id="clip0_1_4050">
<rect x="0.5" y="0.5" width="20" height="20" rx="2" fill="white"/>
</clipPath>
<clipPath id="clip1_1_4050">
<rect width="20" height="20" fill="white" transform="translate(0.5 0.5)"/>
</clipPath>
<clipPath id="clip2_1_4050">
<rect width="29.0909" height="20" fill="white" transform="translate(-4.04547 0.5)"/>
</clipPath>
</defs>
</svg>
