<svg width="209" height="7" viewBox="0 0 209 7" fill="none" xmlns="http://www.w3.org/2000/svg">
<g clip-path="url(#clip0_1_3962)">
<g clip-path="url(#clip1_1_3962)">
<g clip-path="url(#clip2_1_3962)">
<path d="M100.056 4.11141L100.891 5.91906L105.303 6.35488L109.482 3.91251L103.449 0.884155L100.056 4.11141Z" fill="#ADDFF6"/>
<path d="M100.056 4.11141L100.269 4.57161L103.619 2.17116L108.844 4.28496L109.481 3.91153L103.449 0.884155L100.056 4.11141Z" fill="#D6F2FF"/>
<path d="M100.056 4.11141L100.269 4.57161L103.427 1.56666L108.844 4.28496L109.481 3.91153L103.449 0.884155L100.056 4.11141Z" fill="#65B1D7"/>
</g>
</g>
<rect x="0.5" y="0.5" width="208" height="6" fill="url(#paint0_linear_1_3962)"/>
<rect x="0.5" y="0.5" width="208" height="6" fill="url(#paint1_linear_1_3962)"/>
</g>
<defs>
<linearGradient id="paint0_linear_1_3962" x1="0.5" y1="3.5" x2="208.5" y2="3.5" gradientUnits="userSpaceOnUse">
<stop stop-color="#2B62A7"/>
<stop offset="1" stop-color="#2B62A7" stop-opacity="0"/>
</linearGradient>
<linearGradient id="paint1_linear_1_3962" x1="0.5" y1="3.5" x2="208.5" y2="3.5" gradientUnits="userSpaceOnUse">
<stop stop-color="#2B62A7" stop-opacity="0"/>
<stop offset="1" stop-color="#2B62A7"/>
</linearGradient>
<clipPath id="clip0_1_3962">
<rect width="208" height="6" fill="white" transform="translate(0.5 0.5)"/>
</clipPath>
<clipPath id="clip1_1_3962">
<rect width="208" height="6" fill="white" transform="translate(0.5 0.5)"/>
</clipPath>
<clipPath id="clip2_1_3962">
<rect width="11.7" height="7.8" fill="white" transform="translate(98.65 0.5)"/>
</clipPath>
</defs>
</svg>
